<?xml version="1.0" encoding="UTF-8"?>
<svg width="142px" height="142px" viewBox="0 0 142 142" version="1.1" xmlns="http://www.w3.org/2000/svg" xmlns:xlink="http://www.w3.org/1999/xlink">
    <!-- Generator: Sketch 53 (72520) - https://sketchapp.com -->
    <title>logo_digid_rgb</title>
    <desc>Created with Sketch.</desc>
    <defs>
        <polygon id="path-1" points="0.06 0.268 141.732 0.268 141.732 142 0.06 142"></polygon>
    </defs>
    <g id="logo_digid_rgb" stroke="none" stroke-width="1" fill="none" fill-rule="evenodd">
        <g id="Group-3">
            <mask id="mask-2" fill="white">
                <use xlink:href="#path-1"></use>
            </mask>
            <g id="Clip-2"></g>
            <path d="M141.732,122.003 C141.732,133.001 132.734,142 121.736,142 L19.997,142 C8.999,142 0,133.001 0,122.003 L0,20.266 C0,9.267 8.999,0.268 19.997,0.268 L121.736,0.268 C132.734,0.268 141.732,9.267 141.732,20.266 L141.732,122.003" id="Fill-1" fill="#010000" mask="url(#mask-2)"></path>
        </g>
        <path d="M21.879,103.459 L25.402,103.459 C32.141,103.459 36.532,99.834 36.532,91.104 C36.532,83.854 32.141,80.076 24.942,80.076 L21.879,80.076 L21.879,103.459 Z M15.752,108.514 L15.752,75.022 L25.351,75.022 C36.685,75.022 42.965,80.689 42.965,90.797 C42.965,102.898 36.124,108.514 25.146,108.514 L15.752,108.514 L15.752,108.514 Z" id="Fill-4" fill="#FFFFFE"></path>
        <path d="M54.146,108.514 L48.377,108.514 L48.377,83.395 L54.146,83.139 L54.146,108.514 Z M51.235,72.775 C53.431,72.775 54.656,74.154 54.656,76.093 C54.656,77.88 53.431,79.361 51.235,79.361 C49.04,79.361 47.866,78.034 47.866,76.093 C47.866,74.307 49.04,72.775 51.235,72.775 L51.235,72.775 Z" id="Fill-5" fill="#FFFFFE"></path>
        <path d="M74.517,91.768 C74.517,88.705 72.831,87.071 69.615,87.071 C66.756,87.071 64.714,88.705 64.714,92.125 C64.714,95.393 66.552,96.771 69.513,96.771 C72.679,96.771 74.517,95.291 74.517,91.768 Z M69.207,114.233 C74.72,114.233 76.712,112.854 76.712,110.863 C76.712,109.382 75.793,108.565 73.29,108.514 L64.919,108.259 C63.948,108.922 63.54,109.74 63.54,110.914 C63.54,112.905 65.276,114.233 69.207,114.233 Z M68.135,103.613 L74.16,103.613 C79.572,103.613 81.869,105.757 81.869,109.841 C81.869,114.641 77.886,118.521 68.696,118.521 C61.498,118.521 58.179,115.968 58.179,112.037 C58.179,109.637 59.506,107.646 62.008,106.574 L62.008,106.42 C60.834,105.808 60.017,104.532 60.017,103.051 C60.017,101.468 60.987,99.988 62.825,99.273 L62.825,99.12 C60.527,97.843 59.2,95.699 59.2,92.431 C59.2,86.305 63.335,82.986 69.718,82.986 C71.096,82.986 72.322,83.139 73.597,83.497 L81.767,83.497 L81.767,87.326 L77.886,87.326 L77.886,87.479 C78.959,88.296 79.878,90.032 79.878,92.227 C79.878,97.792 76.099,100.703 69.156,100.703 C68.033,100.703 66.96,100.549 65.99,100.294 C65.327,100.652 64.919,101.264 64.919,101.876 C64.919,103 65.786,103.613 68.135,103.613 L68.135,103.613 Z" id="Fill-6" fill="#FFFFFE"></path>
        <path d="M91.466,108.514 L85.697,108.514 L85.697,83.395 L91.466,83.139 L91.466,108.514 Z M88.556,72.775 C90.752,72.775 91.976,74.154 91.976,76.093 C91.976,77.88 90.752,79.361 88.556,79.361 C86.361,79.361 85.187,78.034 85.187,76.093 C85.187,74.307 86.361,72.775 88.556,72.775 L88.556,72.775 Z" id="Fill-7" fill="#D66E2C"></path>
        <path d="M104.894,103.459 L108.417,103.459 C115.156,103.459 119.546,99.834 119.546,91.104 C119.546,83.854 115.156,80.076 107.957,80.076 L104.894,80.076 L104.894,103.459 Z M98.767,108.514 L98.767,75.022 L108.365,75.022 C119.701,75.022 125.98,80.689 125.98,90.797 C125.98,102.898 119.138,108.514 108.162,108.514 L98.767,108.514 L98.767,108.514 Z" id="Fill-8" fill="#D66E2C"></path>
    </g>
</svg>